<svg width="59" height="10" viewBox="0 0 59 10" fill="none" xmlns="http://www.w3.org/2000/svg">
<path d="M5.91211 6.90234C5.91211 6.66797 5.87305 6.45898 5.79492 6.27539C5.7168 6.0918 5.58789 5.92773 5.4082 5.7832C5.23242 5.63477 4.99414 5.49805 4.69336 5.37305C4.39648 5.24414 4.02539 5.11719 3.58008 4.99219C3.1543 4.87109 2.76953 4.73828 2.42578 4.59375C2.08203 4.44922 1.78711 4.2832 1.54102 4.0957C1.29883 3.9082 1.11328 3.68945 0.984375 3.43945C0.855469 3.18555 0.791016 2.89062 0.791016 2.55469C0.791016 2.22656 0.861328 1.92773 1.00195 1.6582C1.14258 1.38867 1.33984 1.15625 1.59375 0.960938C1.85156 0.765625 2.1543 0.615234 2.50195 0.509766C2.85352 0.404297 3.23828 0.351562 3.65625 0.351562C4.25391 0.351562 4.76953 0.464844 5.20312 0.691406C5.64062 0.917969 5.97852 1.22461 6.2168 1.61133C6.45898 1.99414 6.58008 2.42383 6.58008 2.90039H5.85938C5.85938 2.5293 5.77148 2.19922 5.5957 1.91016C5.42383 1.61719 5.17383 1.38867 4.8457 1.22461C4.52148 1.05664 4.125 0.972656 3.65625 0.972656C3.1875 0.972656 2.79297 1.04492 2.47266 1.18945C2.15625 1.33008 1.91602 1.51953 1.75195 1.75781C1.5918 1.99219 1.51172 2.25391 1.51172 2.54297C1.51172 2.74609 1.55078 2.93359 1.62891 3.10547C1.70703 3.27344 1.83398 3.43164 2.00977 3.58008C2.18945 3.72461 2.42578 3.86133 2.71875 3.99023C3.01172 4.11523 3.37305 4.23438 3.80273 4.34766C4.25586 4.47266 4.6582 4.61133 5.00977 4.76367C5.36133 4.91602 5.6582 5.0918 5.90039 5.29102C6.14258 5.48633 6.32617 5.71484 6.45117 5.97656C6.57617 6.23828 6.63867 6.54297 6.63867 6.89062C6.63867 7.23828 6.56445 7.55078 6.41602 7.82812C6.27148 8.10156 6.06641 8.33398 5.80078 8.52539C5.53906 8.7168 5.22852 8.86328 4.86914 8.96484C4.51367 9.06641 4.125 9.11719 3.70312 9.11719C3.32422 9.11719 2.94727 9.06836 2.57227 8.9707C2.19727 8.87305 1.85352 8.72266 1.54102 8.51953C1.23242 8.3125 0.984375 8.04688 0.796875 7.72266C0.613281 7.39844 0.521484 7.01172 0.521484 6.5625H1.23633C1.23633 6.92188 1.30859 7.22461 1.45312 7.4707C1.59766 7.7168 1.78906 7.91602 2.02734 8.06836C2.26953 8.2207 2.53516 8.33203 2.82422 8.40234C3.11719 8.46875 3.41016 8.50195 3.70312 8.50195C4.15234 8.50195 4.54102 8.43555 4.86914 8.30273C5.20117 8.16992 5.45703 7.98438 5.63672 7.74609C5.82031 7.50391 5.91211 7.22266 5.91211 6.90234ZM7.64648 5.92969V5.73633C7.64648 5.27539 7.71289 4.84961 7.8457 4.45898C7.97852 4.06836 8.16797 3.73047 8.41406 3.44531C8.66406 3.16016 8.96289 2.93945 9.31055 2.7832C9.6582 2.62305 10.0449 2.54297 10.4707 2.54297C10.9004 2.54297 11.2891 2.62305 11.6367 2.7832C11.9844 2.93945 12.2832 3.16016 12.5332 3.44531C12.7832 3.73047 12.9746 4.06836 13.1074 4.45898C13.2402 4.84961 13.3066 5.27539 13.3066 5.73633V5.92969C13.3066 6.39062 13.2402 6.81641 13.1074 7.20703C12.9746 7.59375 12.7832 7.92969 12.5332 8.21484C12.2871 8.5 11.9902 8.72266 11.6426 8.88281C11.2949 9.03906 10.9082 9.11719 10.4824 9.11719C10.0527 9.11719 9.66406 9.03906 9.31641 8.88281C8.96875 8.72266 8.66992 8.5 8.41992 8.21484C8.16992 7.92969 7.97852 7.59375 7.8457 7.20703C7.71289 6.81641 7.64648 6.39062 7.64648 5.92969ZM8.34375 5.73633V5.92969C8.34375 6.27734 8.39062 6.60742 8.48438 6.91992C8.57812 7.22852 8.71484 7.50391 8.89453 7.74609C9.07422 7.98438 9.29688 8.17188 9.5625 8.30859C9.82812 8.44531 10.1348 8.51367 10.4824 8.51367C10.8262 8.51367 11.1289 8.44531 11.3906 8.30859C11.6562 8.17188 11.8789 7.98438 12.0586 7.74609C12.2383 7.50391 12.373 7.22852 12.4629 6.91992C12.5566 6.60742 12.6035 6.27734 12.6035 5.92969V5.73633C12.6035 5.39258 12.5566 5.06641 12.4629 4.75781C12.373 4.44922 12.2363 4.17383 12.0527 3.93164C11.873 3.68945 11.6504 3.49805 11.3848 3.35742C11.1191 3.2168 10.8145 3.14648 10.4707 3.14648C10.127 3.14648 9.82227 3.2168 9.55664 3.35742C9.29492 3.49805 9.07227 3.68945 8.88867 3.93164C8.70898 4.17383 8.57227 4.44922 8.47852 4.75781C8.38867 5.06641 8.34375 5.39258 8.34375 5.73633ZM15.5391 0V9H14.8418V0H15.5391ZM18.2344 2.66016V9H17.5371V2.66016H18.2344ZM17.4141 0.826172C17.4141 0.693359 17.4551 0.582031 17.5371 0.492188C17.623 0.398438 17.7402 0.351562 17.8887 0.351562C18.0371 0.351562 18.1543 0.398438 18.2402 0.492188C18.3301 0.582031 18.375 0.693359 18.375 0.826172C18.375 0.955078 18.3301 1.06641 18.2402 1.16016C18.1543 1.25 18.0371 1.29492 17.8887 1.29492C17.7402 1.29492 17.623 1.25 17.5371 1.16016C17.4551 1.06641 17.4141 0.955078 17.4141 0.826172ZM24.2695 7.76953V0H24.9727V9H24.3164L24.2695 7.76953ZM19.8691 5.89453V5.77148C19.8691 5.2793 19.9258 4.83594 20.0391 4.44141C20.1523 4.04297 20.3145 3.70312 20.5254 3.42188C20.7402 3.13672 20.998 2.91992 21.2988 2.77148C21.5996 2.61914 21.9395 2.54297 22.3184 2.54297C22.6895 2.54297 23.0176 2.60352 23.3027 2.72461C23.5879 2.8457 23.832 3.01953 24.0352 3.24609C24.2422 3.47266 24.4082 3.74219 24.5332 4.05469C24.6621 4.36719 24.7559 4.71484 24.8145 5.09766V6.66211C24.7676 7.02148 24.6816 7.35156 24.5566 7.65234C24.4316 7.94922 24.2656 8.20898 24.0586 8.43164C23.8516 8.65039 23.6016 8.82031 23.3086 8.94141C23.0195 9.05859 22.6855 9.11719 22.3066 9.11719C21.9316 9.11719 21.5938 9.03906 21.293 8.88281C20.9922 8.72656 20.7363 8.50586 20.5254 8.2207C20.3145 7.93164 20.1523 7.58984 20.0391 7.19531C19.9258 6.80078 19.8691 6.36719 19.8691 5.89453ZM20.5723 5.77148V5.89453C20.5723 6.26562 20.6094 6.60938 20.6836 6.92578C20.7578 7.24219 20.8711 7.51758 21.0234 7.75195C21.1758 7.98633 21.3691 8.16992 21.6035 8.30273C21.8379 8.43555 22.1152 8.50195 22.4355 8.50195C22.8379 8.50195 23.1758 8.42578 23.4492 8.27344C23.7227 8.11719 23.9414 7.91211 24.1055 7.6582C24.2695 7.40039 24.3887 7.11914 24.4629 6.81445V4.99219C24.416 4.78516 24.3477 4.57422 24.2578 4.35938C24.168 4.14453 24.0449 3.94727 23.8887 3.76758C23.7363 3.58398 23.541 3.4375 23.3027 3.32812C23.0684 3.21484 22.7832 3.1582 22.4473 3.1582C22.123 3.1582 21.8438 3.22461 21.6094 3.35742C21.375 3.49023 21.1797 3.67578 21.0234 3.91406C20.8711 4.14844 20.7578 4.42383 20.6836 4.74023C20.6094 5.05664 20.5723 5.40039 20.5723 5.77148ZM36.2637 0.46875V9H35.5371L30.6328 1.71094V9H29.9121V0.46875H30.6328L35.5488 7.75781V0.46875H36.2637ZM40.7285 9.11719C40.3145 9.11719 39.9336 9.04102 39.5859 8.88867C39.2422 8.73633 38.9414 8.52148 38.6836 8.24414C38.4297 7.9668 38.2324 7.63867 38.0918 7.25977C37.9551 6.87695 37.8867 6.45898 37.8867 6.00586V5.75391C37.8867 5.26562 37.959 4.82422 38.1035 4.42969C38.248 4.03516 38.4473 3.69727 38.7012 3.41602C38.9551 3.13477 39.2441 2.91992 39.5684 2.77148C39.8965 2.61914 40.2402 2.54297 40.5996 2.54297C41.002 2.54297 41.3594 2.61523 41.6719 2.75977C41.9844 2.90039 42.2461 3.10156 42.457 3.36328C42.6719 3.62109 42.834 3.92773 42.9434 4.2832C43.0527 4.63477 43.1074 5.02344 43.1074 5.44922V5.87695H38.3086V5.2793H42.4102V5.19727C42.4023 4.8418 42.3301 4.50977 42.1934 4.20117C42.0605 3.88867 41.8613 3.63477 41.5957 3.43945C41.3301 3.24414 40.998 3.14648 40.5996 3.14648C40.3027 3.14648 40.0293 3.20898 39.7793 3.33398C39.5332 3.45898 39.3203 3.63867 39.1406 3.87305C38.9648 4.10352 38.8281 4.37891 38.7305 4.69922C38.6367 5.01562 38.5898 5.36719 38.5898 5.75391V6.00586C38.5898 6.35742 38.6406 6.68555 38.7422 6.99023C38.8477 7.29102 38.9961 7.55664 39.1875 7.78711C39.3828 8.01758 39.6133 8.19727 39.8789 8.32617C40.1445 8.45508 40.4375 8.51953 40.7578 8.51953C41.1328 8.51953 41.4648 8.45117 41.7539 8.31445C42.043 8.17383 42.3027 7.95312 42.5332 7.65234L42.9727 7.99219C42.8359 8.19531 42.6641 8.38281 42.457 8.55469C42.2539 8.72656 42.0098 8.86328 41.7246 8.96484C41.4395 9.06641 41.1074 9.11719 40.7285 9.11719ZM46.248 7.51758L47.7773 2.66016H48.2695L47.9766 3.9668L46.377 9H45.8848L46.248 7.51758ZM44.6602 2.66016L46.002 7.54688L46.2891 9H45.7793L43.9395 2.66016H44.6602ZM50.1738 7.5293L51.4805 2.66016H52.2012L50.3613 9H49.8574L50.1738 7.5293ZM48.3691 2.66016L49.875 7.47656L50.2559 9H49.7637L48.1289 3.96094L47.8535 2.66016H48.3691ZM57.3457 7.38281C57.3457 7.21094 57.3027 7.04102 57.2168 6.87305C57.1309 6.70508 56.9648 6.55078 56.7188 6.41016C56.4766 6.26953 56.1191 6.15039 55.6465 6.05273C55.2949 5.97461 54.9805 5.88672 54.7031 5.78906C54.4297 5.69141 54.1992 5.57422 54.0117 5.4375C53.8242 5.30078 53.6816 5.13672 53.584 4.94531C53.4863 4.75391 53.4375 4.52734 53.4375 4.26562C53.4375 4.03125 53.4883 3.81055 53.5898 3.60352C53.6953 3.39258 53.8438 3.20898 54.0352 3.05273C54.2305 2.89258 54.4648 2.76758 54.7383 2.67773C55.0156 2.58789 55.3262 2.54297 55.6699 2.54297C56.1582 2.54297 56.5762 2.62695 56.9238 2.79492C57.2754 2.95898 57.543 3.18359 57.7266 3.46875C57.9141 3.75391 58.0078 4.07617 58.0078 4.43555H57.3105C57.3105 4.2168 57.2461 4.00977 57.1172 3.81445C56.9922 3.61914 56.8066 3.45898 56.5605 3.33398C56.3184 3.20898 56.0215 3.14648 55.6699 3.14648C55.3066 3.14648 55.0117 3.20117 54.7852 3.31055C54.5586 3.41992 54.3926 3.55859 54.2871 3.72656C54.1855 3.89453 54.1348 4.06836 54.1348 4.24805C54.1348 4.38867 54.1562 4.51758 54.1992 4.63477C54.2461 4.74805 54.3281 4.85352 54.4453 4.95117C54.5664 5.04883 54.7383 5.14062 54.9609 5.22656C55.1836 5.3125 55.4727 5.39648 55.8281 5.47852C56.3398 5.5918 56.7578 5.73047 57.082 5.89453C57.4102 6.05469 57.6523 6.25391 57.8086 6.49219C57.9648 6.72656 58.043 7.01172 58.043 7.34766C58.043 7.60938 57.9883 7.84961 57.8789 8.06836C57.7695 8.2832 57.6113 8.46875 57.4043 8.625C57.2012 8.78125 56.9551 8.90234 56.666 8.98828C56.3809 9.07422 56.0605 9.11719 55.7051 9.11719C55.1699 9.11719 54.7168 9.0293 54.3457 8.85352C53.9785 8.67383 53.6992 8.43945 53.5078 8.15039C53.3203 7.85742 53.2266 7.54688 53.2266 7.21875H53.9238C53.9473 7.54688 54.0508 7.80664 54.2344 7.99805C54.418 8.18555 54.6426 8.31836 54.9082 8.39648C55.1777 8.47461 55.4434 8.51367 55.7051 8.51367C56.0645 8.51367 56.3652 8.46094 56.6074 8.35547C56.8496 8.25 57.0332 8.11133 57.1582 7.93945C57.2832 7.76758 57.3457 7.58203 57.3457 7.38281Z" fill="black"/>
</svg>
